# Blender v2.76 (sub 0) OBJ File: 'dirtgrass.blend'
# www.blender.org
mtllib dirtgrass.mtl
o Cube
v 0.500000 -0.500000 -0.500000
v 0.500000 -0.500000 0.500000
v -0.500000 -0.500000 0.500000
v -0.500000 -0.500000 -0.500000
v 0.500000 0.500000 -0.500000
v 0.500000 0.500000 0.500000
v -0.500000 0.500000 0.500000
v -0.500000 0.500000 -0.500000
vt 0.499900 0.499900
vt 0.000100 0.499900
vt 0.000100 0.000100
vt 0.499900 0.000100
vt 0.499900 0.999899
vt 0.000100 0.999900
vt 0.000100 0.500100
vt 0.499899 0.500100
vn 0.000000 -1.000000 0.000000
vn 0.000000 1.000000 0.000000
vn 1.000000 0.000000 0.000000
vn -0.000000 -0.000000 1.000000
vn -1.000000 -0.000000 -0.000000
vn 0.000000 0.000000 -1.000000
usemtl Material
s off
f 1/1/1 2/2/1 3/3/1 4/4/1
f 5/5/2 8/6/2 7/7/2 6/8/2
f 1/4/3 5/1/3 6/2/3 2/3/3
f 2/4/4 6/1/4 7/2/4 3/3/4
f 3/2/5 7/3/5 8/4/5 4/1/5
f 5/4/6 1/1/6 4/2/6 8/3/6
